<svg id="Layer_1" data-name="Layer 1" xmlns="http://www.w3.org/2000/svg" viewBox="0 0 576.19 202.52"><defs><style>.cls-1{font-size:93px;font-family:ArialMT, Arial;}.cls-1,.cls-3{fill:#fff;}.cls-2{fill:none;stroke:#fff;stroke-miterlimit:10;stroke-width:5px;}</style></defs><title>Untitled-1</title><text class="cls-1" transform="translate(19.34 106.16)">BREAK BOX</text><polyline id="box" class="cls-2" points="341.14 153.65 573.69 153.65 573.69 2.5 2.5 2.5 2.5 153.65 235.31 153.65"/><path id="heart" class="cls-3" d="M286.3,132s-14.13-7.49-25.75.94-6.89,22.21-6.89,22.21,2,9.83,11.62,21.32,18.46,20.68,30.23,29.36c11.77-8.68,20.66-17.87,30.23-29.36s11.62-21.32,11.62-21.32,4.73-13.79-6.89-22.21-25.75-.94-25.75-.94a17.24,17.24,0,0,0-4.12,3.22l3.75,9.91-4.2,7.21,3.34,6.64-4.33,10,3.68,8.87-8.65,15.41.64-16-5-8.14,4.7-9.73-3.74-6.64,3.74-5.94Z" transform="translate(-7.41 -3.29)"/></svg>